# xmcd
#
# Track frame offsets:
#	150
#	12902
#	24051
#	38310
#	53167
#	63827
#	76663
#	87882
#	104144
#	116876
#	130984
#	145583
#	155801
#	174095
#
# Disc length: 2677 seconds
#
# Revision: 0
# Processed by: cddbd v1.5.1PL0 Copyright (c) Steve Scherf et al.
# Submitted via: EasyCDDAExtractor 4.6.9.1
#
DISCID=a30a730e
DTITLE=The Punkin Holler Boys - Three Headed Cow
DYEAR=2001
DGENRE=Bluegrass
TTITLE0=Lay Your Asphalt Down
TTITLE1=The Elephant Song
TTITLE2=Long, Long Time
TTITLE3=How 'Bout Us?
TTITLE4=Hail to the Wagon!
TTITLE5=I Am The Praying Mantis
TTITLE6=Dewey
TTITLE7=Punkin Blossom Time
TTITLE8=Slack-Jawed Youth of America
TTITLE9=The Banana Farmer
TTITLE10=The Journey
TTITLE11=Honey Babe
TTITLE12=Can We Be Alone Tonight
TTITLE13=She Stood
EXTD=
EXTT0=
EXTT1=
EXTT2=
EXTT3=
EXTT4=
EXTT5=
EXTT6=
EXTT7=
EXTT8=
EXTT9=
EXTT10=
EXTT11=
EXTT12=
EXTT13=
PLAYORDER=
